<?xml version="1.0" encoding="UTF-8"?>
<svg viewBox="0 0 733.29498 437.7821" xmlns="http://www.w3.org/2000/svg" xmlns:xlink="http://www.w3.org/1999/xlink">
 <g transform="translate(524.04 -226.62)">
  <path d="m-486.73 577.77 145.71 77.143 140-77.143 6.4286-180-146.43-51.429-148.57 51.429 2.8571 180z" fill="#c7a172" fill-rule="evenodd" stroke="#b7946e"/>
  <path d="m-344.44 449.78 149.21-54.328m-297.84-3.0305 148.88 57.447 3.1994 206.03" fill="none" stroke="#b7946e" stroke-width="2"/>
  <path d="m-429.64 449.89 24.244 9.0914 2.0203-34.345 61.619-21.213 62.629 22.223-2.0203 34.345 27.274-8.0812-1.0102-36.365-61.619-20.203 61.619-19.193-24.244-8.0812-60.609 21.213-69.701-22.223-16.162 6.0609 62.629 23.234-65.66 18.183-1.0102 35.355z" fill="#a28661" fill-rule="evenodd"/>
  <g id="a" transform="translate(29.979 -7.4947)">
   <g transform="translate(-434.56 -177.54)">
    <path d="m136.5 650.95c1.5476-0.05623 4.124-0.52378 4.0494 2.7982l-1.0895 48.493c-0.52215 3.0046-2.0338 4.6285-2.8625 4.7072l-60.849 25.898c-2.9252 0.74819-3.1806-0.83963-3.481-2.3881l1.2245-50.718c0.07711-3.1939 2.1482-4.5734 3.0305-4.9245l59.978-23.865z" fill="none" stroke="#69533c" stroke-linecap="square" stroke-width="2"/>
    <path d="m104.17 674.97c-0.57663-0.45704-1.202-2.4665-0.86703-2.7858 0.34166-0.32566 2.0132 0.69024 2.3829 1.4482 0.51383 1.0536-0.61612 2.0507-1.5158 1.3376z" fill="#5c4a3a"/>
    <g transform="matrix(.21749 -.014969 .014969 .21749 -23.577 623.85)">
     <path d="m468.32 451.44zm-9.5-15.532c-12.775-1.9696-18.61-5.9691-14.83-10.166 2.5574-2.8396 5.5528-3.8546 15.33-5.1948l8.5-1.1651v-31.775l-4.4464-1.4822c-5.1899-1.73-12.876-8.9551-15.962-15.006l-0.22673-14.911 4.2512-20.698 8.02 15.259 9.58-25.84 4.2554 25.277 11.093-23.634 3.4937 23.858 7.2359-25.836 0.41964 45.285c-0.35737 1.3106-0.88702 2.4311-1.6528 3.9423-2.9074 5.7374-8.3201 10.539-14.023 12.44l-4.0372 1.3457v31.77l4.5 0.78473c11.243 1.9606 15.055 3.0336 17.439 4.9092 5.2007 4.0909 2.4291 7.7522-7.4389 9.8269-7.5711 1.5918-24.258 2.1271-31.5 1.0105zm29.75-4.1152c2.6125-0.56023 4.75-1.4616 4.75-2.0031 0-0.56818-0.9515-0.67929-2.25-0.26275-8.8479 2.8383-24.233 3.2292-35.25 0.89564-8.2722-1.7522-7.7593-1.7106-7.0558-0.57239 0.48783 0.78933 5.6961 1.8505 17.055 3.4751 4.0705 0.58216 16.928-0.28394 22.75-1.5325zm-37.853-100.47-4.4077 21.16-0.00968-45.03c15.636 4.5287 33.777 2.63 49.64 1.1344l-1.1083 12.431-5.4458 16.055-2.409-23.037-12.27 25.864-5.8518-19.718-10.324 22.693-7.8135-11.551z" fill="#5a4838"/>
    </g>
    <g transform="matrix(.16996 -.0569 .0569 .16996 36.553 585.9)">
     <path d="m261.73 735.37 5.0663-15.394 77.936-6.8787-3.8643 15.369-79.138 6.9041z" fill="#564734"/>
     <path d="m316.73 700.9 28.032-81.209-7.1429-0.44757 23.248-19.245 15.257 19.825-10.703-0.38548-27.954 80.954-20.736 0.50787z" fill="#564734"/>
    </g>
    <path d="m122.81 690.5-0.13905-16.245-1.2395 0.33036 3.1388-4.947 3.7212 2.8547-1.2053 0.47285 0.06702 15.491-4.3432 2.0433z" fill="#564734"/>
    <path d="m107.52734,701.4302c-1.18722-.03248-2.66294-1.20315-2.89326-2.2952-.13513-.64078.49982-.40872.90224.32975 .57819,1.06101 1.42783,1.43363 2.67105,1.17144 .8134-.17155 1.10211-.3497 1.54672-.95444l.54664-.74352-1.1607-5.80442-1.16073-5.80442-.47224.10432c-.25974.05739-.84762.38016-1.30641.71728l-.83417.61295-1.23742-.3299c-1.46976-.39185-2.76934-.18461-4.05975.64736l-.88059.56774-.68739-.53728c-.96143-.75146-1.57043-.80496-2.54161-.22328-.44005.26356-.85574.44295-.92375.39863-.25311-.16495.37226-1.71602 1.12566-2.79186 1.55299-2.21764 4.28798-3.9036 8.04064-4.95656 1.41955-.39831 2.18428-.71176 2.38433-.9773 .26388-.35026.33894-.36614.72171-.15267 .24179.13484 1.06632.16571 1.89977.07111 4.43314-.50314 8.43724.55559 10.63974,2.81326 .42272.43332.73881.87048.70243.9715s-.37622.19874-.75518.21718c-.50136.0244-.96408.26195-1.69878.87212-.95932.79672-1.04886.83117-1.79314.6898-1.15262-.21893-2.91178.20481-3.7775.90991l-.72366.58941-1.14675-.26601c-2.0332-.47163-1.97997-.86047-.74004,5.406 .99695,5.03843 1.0731,5.6119.85476,6.43733-.36992,1.39847-1.70818,2.35174-3.24262,2.30977zm.47666-22.71197c-.49043-.58314-.89548-2.53301-.54169-2.60762 .98394-.20751 2.56858,1.20226 2.46933,2.19683-.07325.7338-1.41543,1.01984-1.92764.41079zm-7.11162,1.36642c-.55323-.75025-.88829-2.27889-.5667-2.58543 .31802-.30312 2.00481.75109 2.35689,1.473 .60195,1.23426-.97689,2.21537-1.79019,1.11243zm-8.76694-1.58719c-.6745-.63078-1.13735-2.67447-.62997-2.78148s2.33299,1.31297 2.45991,1.91478c.09942.47142-.46956,1.18078-1.04434,1.302-.14368.03031-.4972-.16558-.7856-.4353zm5.00767,4.19012c-.22988-.18221-.58269-.82819-.78402-1.43553-.51575-1.55584-.07512-1.85504 1.2916-.877 1.34244.96065 1.60172,2.07659.56338,2.42482-.36345.12189-.83831.0721-1.07096-.11229zm12.01268-8.07711c-.79997-.66307-1.28258-2.90682-.65374-3.03944 .53702-.11326 2.10032,1.24749 2.25032,1.95876 .20233.95933-.8685,1.68415-1.59658,1.08068zm4.20244,3.61967c-.41834-.33158-1.01916-2.51582-.78913-2.86882 .15206-.23334 1.85755.74516 2.39011,1.37129 .80403.9453-.61869,2.2761-1.60098,1.49753zm-13.38991-6.87481c-1.82886-2.44168-.41029-3.93453 1.63169-1.29838 .51587.82252-.86604,1.92215-1.63169,1.29838zm-5.87505,14.60006c-.84687-.31608-1.57103-2.94899-.85274-3.10048 .36443-.07686 1.43894.65307 2.03036,1.37928 .52384.64323.52634.66509.14345,1.25265-.35753.54864-.74156.68484-1.32107.46855zm1.39196-11.94612c-.65613-.88979-.84789-2.10512-.37992-2.4079 .5878-.3803 2.23303.91018 2.31744,1.81776 .05337.57376-.08139.75414-.7118.95279s-.86337.12875-1.22571-.36265zm9.54572-3.84763c-1.82886-2.44168-.41029-3.93453 1.63169-1.29838 .51587.82252-.86604,1.92215-1.63169,1.29838zm4.3799-1.41287c-1.82886-2.44168-.41029-3.93453 1.63169-1.29838 .51587.82252-.86604,1.92215-1.63169,1.29838z" fill="#5c4a3a"/>
   </g>
   <path transform="matrix(.90756,-.39654,.38321,.93442,0,0)" d="m-545.31218,358.14554v-4.6599h3.14368v.54991h-2.52702v1.4431h2.18691v.54991h-2.18691v2.11698h-.61666zm3.95742,0v-4.6599h2.06612c.41534,1e-005 .73108.04186.94723.12556s.38885.23151.51812.44342 .1939.44607.1939.70248c0,.33058-.10702.60924-.32104.83598s-.54461.37085-.99174.4323c.16317.07841.28713.15576.3719.23204 .18012.16529.35071.37191.51176.61984l.81056,1.26828h-.77559l-.61666-.96949c-.18013-.27972-.32846-.49375-.44501-.64209s-.22092-.25217-.3131-.3115-.18595-.10066-.28131-.12397c-.06993-.01483-.18436-.02225-.34329-.02225h-.7152v2.0693h-.61665zm.61665-2.60331h1.3255c.28184,0 .50222-.02914.66116-.08742s.27972-.15151.36236-.27972 .12397-.26753.12397-.41799c0-.22038-.08-.40156-.23999-.54355s-.41269-.21296-.7581-.21297h-1.4749v1.54165zm3.56645,2.60331 1.78957-4.6599h.66434l1.90719,4.6599h-.70248l-.54355-1.41132h-1.94851l-.51176,1.41132h-.6548zm1.34456-1.91355h1.57979l-.48633-1.29053c-.14834-.39203-.25853-.71413-.33058-.96631-.05934.2988-.14304.59547-.25111.89002l-.51177,1.36682zm5.69614.08583v-.54673l1.97394-.00318v1.72918c-.30304.24158-.6156.42329-.9377.54514s-.65269.18277-.99174.18277c-.45773,0-.8736-.098-1.24762-.29402s-.65639-.47945-.84711-.85029-.28608-.78512-.28608-1.24285c0-.45348.09483-.87677.28449-1.26987s.46249-.68499.8185-.87572 .76606-.28607 1.23014-.28607c.33693,0 .64155.05457.91386.1637s.4858.26118.6405.45613 .2723.44925.35283.76288l-.55626.15257c-.06994-.23733-.15682-.42381-.26065-.55944s-.25218-.24422-.44501-.32581-.40687-.12237-.64209-.12238c-.28184,1e-005-.52554.04292-.73109.12874s-.37137.19867-.49746.33852-.22409.2935-.29402.46091c-.11867.2882-.17801.60076-.17801.9377 0,.41534.07152.76287.21456,1.04259s.35124.4874.62461.62302 .56367.20343.87095.20343c.267,0 .52765-.05139.78194-.15416s.44713-.21244.57852-.32899v-.86777h-1.37zm2.98475,1.82772v-4.6599h.61666v4.6599h-.61666zm1.67515,0v-4.6599h.61665v4.10999h2.29499v.54991h-2.91164zm3.6618,0v-4.6599h3.36936v.54991h-2.75271v1.42721h2.57789v.54673h-2.57789v1.58614h2.86079v.54991h-3.47744zm5.84553-1.39861v-.57533h1.75779v.57533h-1.75779zm4.24985,1.39861v-4.6599h.61666v2.31088l2.31405-2.31088h.83599l-1.95487,1.88812 2.04069,2.77178h-.81373l-1.65926-2.35856-.76287.74381v1.61475h-.61666zm4.38653,0v-4.6599h3.36937v.54991h-2.75271v1.42721h2.57788v.54673h-2.57788v1.58614h2.86078v.54991h-3.47744zm4.34839,0v-4.6599h3.36937v.54991h-2.75271v1.42721h2.57788v.54673h-2.57788v1.58614h2.86078v.54991h-3.47744zm4.33568,0v-4.6599h1.75779c.30939,1e-005 .54567.01484.70884.0445 .22886.03815.42064.11073.57533.21774s.27919.25694.37349.44978 .14145.40475.14145.63573c0,.39627-.12609.73162-.37825,1.00604s-.70779.41164-1.36682.41163h-1.19517v1.89448h-.61666zm.61666-2.44438h1.2047c.39839,0 .68129-.07417.8487-.22251s.25111-.35706.25112-.62619c-1e-005-.19495-.04928-.36183-.14781-.50064s-.22834-.23044-.38939-.27495c-.10383-.02754-.29561-.04132-.57533-.04132h-1.19199v1.66561zm5.5372,2.44438v-4.6599h1.60521c.36237,1e-005 .63891.02226.82963.06675 .267.06146.49481.17271.68341.33376 .24581.20768.42964.47309.55149.79625s.18277.69242.18278,1.10776c-1e-005,.35389-.04133.66752-.12397.94088s-.1886.49958-.31787.67864-.27071.31999-.42434.42276-.33906.18065-.55627.23363-.46673.07947-.74857.07947h-1.6815zm.61665-.54991h.99492c.30727,0 .54831-.0286.72314-.08582s.31416-.13774.41799-.24158c.14622-.14621.26012-.34276.34171-.58964s.12237-.54619.12238-.89797c-1e-005-.48738-.08-.86193-.23999-1.12365s-.35442-.43706-.58328-.52606c-.16529-.06357-.43124-.09536-.79784-.09536h-.97903v3.56008zm4.09728.54991v-4.6599h2.06612c.41534,1e-005 .73109.04186.94724.12556s.38885.23151.51812.44342 .19389.44607.1939.70248c-1e-005,.33058-.10702.60924-.32105.83598s-.54461.37085-.99174.4323c.16317.07841.28714.15576.37191.23204 .18012.16529.3507.37191.51176.61984l.81055,1.26828h-.77559l-.61665-.96949c-.18013-.27972-.32847-.49375-.44501-.64209s-.22092-.25217-.3131-.3115-.18595-.10066-.28131-.12397c-.06993-.01483-.18436-.02225-.3433-.02225h-.71519v2.0693h-.61666zm.61666-2.60331h1.32549c.28184,0 .50223-.02914.66116-.08742s.27972-.15151.36237-.27972 .12396-.26753.12397-.41799c-1e-005-.22038-.08-.40156-.23999-.54355s-.4127-.21296-.75811-.21297h-1.47489v1.54165zm5.39099,2.60331v-1.97394l-1.79594-2.68596h.75016l.91863,1.40496c.16953.26277.3274.52554.47362.78831 .13986-.2437.30938-.51812.50858-.82327l.90274-1.37h.71837l-1.85951,2.68596v1.97394h-.61665z" fill="#5c4a3a"/>
  </g>
  <path d="m-197.37 287.36-2.1955 5.8274 18.231 47.932-58.502-21.317 0.50779 3.6203 75.714 57.969 4.7164 184.84 139.84 77.154 148.8-79.91-1.272-177.26 67.67-59.842-4.7693-5.7633-28.651 15.64 18.794-35.455-156.38-30.311-41.333 66.132-30.311-74.399-150.86 25.144z" fill="#d39444" fill-rule="evenodd"/>
  <path d="m195.21 325.04-133.37 53.896-81.474 67.214m-65.497-61.697-0.12083-5.903m147.58 0.76868-3.482-5.8877m-75.822 64.987 0.77207-98.365m93.981 26.367-93.213-27.262-99.361 28.995m245 18.41-149.96 59.035-66.004-61.446-154.31-60.621 0.34444-3.7888 154.65 58.21 65.634 62.14 78.779-65.82 132.5-52.693m-356.82 60.505 145.22 63.23 1.3232 198.98" fill="none" stroke="#66250f" stroke-width=".51995"/>
  <use transform="translate(327.89 -16.863)" width="733.29498" height="437.7821" xlink:href="#a"/>
 </g>
</svg>
