<?xml version="1.0" encoding="UTF-8" standalone="no"?>
<svg
   xmlns:dc="http://purl.org/dc/elements/1.1/"
   xmlns:cc="http://creativecommons.org/ns#"
   xmlns:rdf="http://www.w3.org/1999/02/22-rdf-syntax-ns#"
   xmlns:svg="http://www.w3.org/2000/svg"
   xmlns="http://www.w3.org/2000/svg"
   xmlns:xlink="http://www.w3.org/1999/xlink"
   xmlns:sodipodi="http://sodipodi.sourceforge.net/DTD/sodipodi-0.dtd"
   xmlns:inkscape="http://www.inkscape.org/namespaces/inkscape"
   viewBox="0 0 172.36546 156.86761"
   version="1.1"
   id="svg351"
   sodipodi:docname="apparel-162180.svg.2020_10_19_15_05_24.0.svg"
   inkscape:version="0.92.3 (2405546, 2018-03-11)">
  <metadata
     id="metadata355">
    <rdf:RDF>
      <cc:Work
         rdf:about="">
        <dc:format>image/svg+xml</dc:format>
        <dc:type
           rdf:resource="http://purl.org/dc/dcmitype/StillImage" />
      </cc:Work>
    </rdf:RDF>
  </metadata>
  <sodipodi:namedview
     pagecolor="#ffffff"
     bordercolor="#666666"
     borderopacity="1"
     objecttolerance="10"
     gridtolerance="10"
     guidetolerance="10"
     inkscape:pageopacity="0"
     inkscape:pageshadow="2"
     inkscape:window-width="1600"
     inkscape:window-height="837"
     id="namedview353"
     showgrid="false"
     inkscape:zoom="12.035626"
     inkscape:cx="86.182732"
     inkscape:cy="122.06706"
     inkscape:window-x="0"
     inkscape:window-y="30"
     inkscape:window-maximized="1"
     inkscape:current-layer="svg351" />
  <defs
     id="defs137">
    <filter
       id="i">
      <feGaussianBlur
         stdDeviation=".6212"
         id="feGaussianBlur2" />
    </filter>
    <filter
       id="z">
      <feGaussianBlur
         stdDeviation="2.4616"
         id="feGaussianBlur5" />
    </filter>
    <filter
       id="d">
      <feGaussianBlur
         stdDeviation="10.8402"
         id="feGaussianBlur8" />
    </filter>
    <filter
       id="t">
      <feGaussianBlur
         stdDeviation=".4299"
         id="feGaussianBlur11" />
    </filter>
    <filter
       id="s">
      <feGaussianBlur
         stdDeviation=".4286"
         id="feGaussianBlur14" />
    </filter>
    <filter
       id="ah">
      <feGaussianBlur
         stdDeviation=".3368"
         id="feGaussianBlur17" />
    </filter>
    <filter
       id="ag">
      <feGaussianBlur
         stdDeviation=".2869"
         id="feGaussianBlur20" />
    </filter>
    <filter
       id="af">
      <feGaussianBlur
         stdDeviation=".2389"
         id="feGaussianBlur23" />
    </filter>
    <filter
       id="ac">
      <feGaussianBlur
         stdDeviation=".216"
         id="feGaussianBlur26" />
    </filter>
    <filter
       id="ab">
      <feGaussianBlur
         stdDeviation=".4251"
         id="feGaussianBlur29" />
    </filter>
    <filter
       id="u"
       x="-.34883"
       y="-.05975"
       width="1.6976"
       height="1.1195">
      <feGaussianBlur
         stdDeviation="1.281"
         id="feGaussianBlur32" />
    </filter>
    <filter
       id="ak"
       x="-.68589"
       y="-.07851"
       width="2.3718"
       height="1.157">
      <feGaussianBlur
         stdDeviation="2.3457"
         id="feGaussianBlur35" />
    </filter>
    <filter
       id="aj"
       x="-.50088"
       y="-.04501"
       width="2.0018"
       height="1.09">
      <feGaussianBlur
         stdDeviation="1.352"
         id="feGaussianBlur38" />
    </filter>
    <filter
       id="am"
       x="-.27935"
       y="-.05184"
       width="1.5587"
       height="1.1037">
      <feGaussianBlur
         stdDeviation="1.5308"
         id="feGaussianBlur41" />
    </filter>
    <filter
       id="w"
       x="-.261"
       y="-.07914"
       width="1.522"
       height="1.1583">
      <feGaussianBlur
         stdDeviation="1.8205"
         id="feGaussianBlur44" />
    </filter>
    <filter
       id="l"
       x="-.18127"
       y="-.09693"
       width="1.3625"
       height="1.1939">
      <feGaussianBlur
         stdDeviation="1.2123"
         id="feGaussianBlur47" />
    </filter>
    <filter
       id="al"
       x="-.21687"
       y="-.10975"
       width="1.4338"
       height="1.2195">
      <feGaussianBlur
         stdDeviation="1.6043"
         id="feGaussianBlur50" />
    </filter>
    <filter
       id="f"
       x="-.25626"
       y="-.09715"
       width="1.5125"
       height="1.1943">
      <feGaussianBlur
         stdDeviation="1.3248"
         id="feGaussianBlur53" />
    </filter>
    <filter
       id="j"
       x="-.15509"
       y="-.17668"
       width="1.3102"
       height="1.3534">
      <feGaussianBlur
         stdDeviation="1.7329"
         id="feGaussianBlur56" />
    </filter>
    <filter
       id="g"
       x="-.14658"
       y="-.1269"
       width="1.2932"
       height="1.2538">
      <feGaussianBlur
         stdDeviation="1.8078"
         id="feGaussianBlur59" />
    </filter>
    <filter
       id="h"
       x="-.16888"
       y="-.02975"
       width="1.3378"
       height="1.0595">
      <feGaussianBlur
         stdDeviation=".9401"
         id="feGaussianBlur62" />
    </filter>
    <filter
       id="k"
       x="-.12224"
       y="-.05698"
       width="1.2445"
       height="1.114">
      <feGaussianBlur
         stdDeviation="1.3166"
         id="feGaussianBlur65" />
    </filter>
    <filter
       id="ai"
       x="-.2225"
       y="-.06215"
       width="1.445"
       height="1.1243">
      <feGaussianBlur
         stdDeviation="1.0689"
         id="feGaussianBlur68" />
    </filter>
    <filter
       id="x"
       x="-.22864"
       y="-.04207"
       width="1.4573"
       height="1.0841">
      <feGaussianBlur
         stdDeviation="1.3234"
         id="feGaussianBlur71" />
    </filter>
    <filter
       id="v"
       x="-.1639"
       y="-.13122"
       width="1.3278"
       height="1.2624">
      <feGaussianBlur
         stdDeviation="1.6631"
         id="feGaussianBlur74" />
    </filter>
    <filter
       id="ae"
       x="-.1393"
       y="-.01331"
       width="1.2786"
       height="1.0266">
      <feGaussianBlur
         stdDeviation=".2024"
         id="feGaussianBlur77" />
    </filter>
    <filter
       id="ad"
       x="-.01017"
       y="-.2179"
       width="1.0203"
       height="1.4358">
      <feGaussianBlur
         stdDeviation=".3655"
         id="feGaussianBlur80" />
    </filter>
    <filter
       id="aa"
       x="-.13992"
       y="-.02257"
       width="1.2798"
       height="1.0451">
      <feGaussianBlur
         stdDeviation=".2186"
         id="feGaussianBlur83" />
    </filter>
    <filter
       id="y"
       x="-.1102"
       y="-.01066"
       width="1.2204"
       height="1.0213" />
    <linearGradient
       id="e"
       x1="56.824"
       x2="47.431"
       y1="72.514"
       y2="64.654"
       gradientUnits="userSpaceOnUse">
      <stop
         offset="0"
         id="stop87" />
      <stop
         stop-color="#b3b3b3"
         stop-opacity="0"
         offset="1"
         id="stop89" />
    </linearGradient>
    <linearGradient
       id="q"
       x1="81.858"
       x2="81.819"
       y1="93.624"
       y2="29.118"
       gradientUnits="userSpaceOnUse">
      <stop
         stop-opacity=".4462"
         offset="0"
         id="stop92" />
      <stop
         stop-opacity="0"
         offset="1"
         id="stop94" />
    </linearGradient>
    <linearGradient
       id="r"
       x1="99.242"
       x2="93.684"
       y1="21.47"
       y2="17.382"
       gradientUnits="userSpaceOnUse">
      <stop
         stop-color="#ccc"
         offset="0"
         id="stop97" />
      <stop
         stop-color="#fff"
         offset="1"
         id="stop99" />
    </linearGradient>
    <linearGradient
       id="p"
       x1="61.069"
       x2="69.57"
       y1="21.633"
       y2="16.974"
       gradientUnits="userSpaceOnUse">
      <stop
         stop-color="#808080"
         offset="0"
         id="stop102" />
      <stop
         stop-color="#fff"
         offset="1"
         id="stop104" />
    </linearGradient>
    <linearGradient
       id="o"
       x1="81.562"
       x2="81.399"
       y1="13.565"
       y2="4.8183"
       gradientUnits="userSpaceOnUse">
      <stop
         stop-color="#666"
         offset="0"
         id="stop107" />
      <stop
         stop-color="#fff"
         offset="1"
         id="stop109" />
    </linearGradient>
    <linearGradient
       id="n"
       x1="81.545"
       x2="81.777"
       y1="30.178"
       y2="7.7521"
       gradientUnits="userSpaceOnUse">
      <stop
         offset="0"
         id="stop112" />
      <stop
         stop-color="#666"
         stop-opacity="0"
         offset="1"
         id="stop114" />
    </linearGradient>
    <radialGradient
       id="m"
       cx="108.39"
       cy="124.97"
       r="80.775"
       gradientTransform="matrix(1.9063 -.00987 .01657 3.1906 -135.81 -308.26)"
       gradientUnits="userSpaceOnUse">
      <stop
         stop-color="#69c"
         offset="0"
         id="stop117" />
      <stop
         stop-color="#036"
         offset="1"
         id="stop119" />
    </radialGradient>
    <radialGradient
       id="c"
       cx="298.86"
       cy="306.83"
       r="189.29"
       gradientTransform="matrix(1.9901 .00021103 -.00018758 1.7691 -333.04 -271.62)"
       gradientUnits="userSpaceOnUse">
      <stop
         stop-color="#fff"
         offset="0"
         id="stop122" />
      <stop
         stop-color="#333"
         offset="1"
         id="stop124" />
    </radialGradient>
    <radialGradient
       id="b"
       cx="310.42"
       cy="406.01"
       r="189.29"
       gradientTransform="matrix(1.9901 .00021103 -.00018758 1.7691 -333.04 -271.62)"
       gradientUnits="userSpaceOnUse">
      <stop
         stop-color="#fff"
         offset="0"
         id="stop127" />
      <stop
         offset="1"
         id="stop129" />
    </radialGradient>
    <radialGradient
       id="a"
       cx="294.5"
       cy="423.23"
       r="189.29"
       gradientTransform="matrix(1.9901 .00021103 -.00018758 1.7691 -333.04 -271.62)"
       gradientUnits="userSpaceOnUse">
      <stop
         stop-color="#fff"
         offset="0"
         id="stop132" />
      <stop
         stop-color="#888"
         offset="1"
         id="stop134" />
    </radialGradient>
    <linearGradient
       inkscape:collect="always"
       xlink:href="#e"
       id="linearGradient481"
       gradientUnits="userSpaceOnUse"
       x1="56.824"
       y1="72.514"
       x2="47.431"
       y2="64.654" />
    <linearGradient
       inkscape:collect="always"
       xlink:href="#e"
       id="linearGradient483"
       gradientUnits="userSpaceOnUse"
       x1="56.824"
       y1="72.514"
       x2="47.431"
       y2="64.654" />
  </defs>
  <g
     transform="translate(2.1015 2.3053)"
     id="g141">
    <path
       d="m69.456 4.0024c11.262 1.5119 20.644 1.1439 29.25 0l5.25 7.25c22.644 8.5823 35.766 7.6457 60 21-3.1189 10.486-3.7062 21.984-13 30-7.75-6.088-15.5-4.7999-23.25-6.75 0 0 1.0423 13.155 0 19.42-1.4026 8.4308 1.4592 17.719 0 25.64-1.3092 7.1069 1.0423 15.704 0 21.679-1.232 7.0636 0 21.511 0 21.511-29.128 5.3015-58.037 6.6657-86.5 0 0 0-1.1111-11.531 0-17.133 1.6676-8.4077-1.2875-18.158 0-27.099 1.2507-8.6856 2.3833-17.296 0-25.432-1.8761-6.4039 0-18.586 0-18.586-6.7408 0.75138-12.342 0.20025-23.5 6-8.3758-6.9854-10.991-18.452-13.5-30 25.954-11.671 39.005-13.262 60.25-19.75z"
       fill-opacity=".2922"
       fill-rule="evenodd"
       filter="url(#z)"
       id="path139" />
  </g>
  <g
     transform="translate(2.1015 2.3053)"
     id="g145">
    <path
       d="m65.715 0.56831c11.262 1.5119 20.644 1.1439 29.25 0l5.25 7.25c22.644 8.5823 35.766 7.6457 60 21-3.1189 10.486-3.7062 21.984-13 30-7.75-6.088-15.5-4.7999-23.25-6.75 0 0 1.0423 13.155 0 19.42-1.4026 8.4308 1.4592 17.719 0 25.64-1.3092 7.1069 1.0423 15.704 0 21.679-1.232 7.0636 0 21.511 0 21.511-29.128 5.3015-58.037 6.6657-86.5 0 0 0-1.1111-11.531 0-17.133 1.6676-8.4077-1.2875-18.158 0-27.099 1.2507-8.6856 2.3833-17.296 0-25.432-1.8761-6.4039 0-18.586 0-18.586-6.7408 0.75138-12.342 0.20025-23.5 6-8.3759-6.9854-10.991-18.452-13.5-30 25.954-11.671 39.005-13.262 60.25-19.75z"
       fill="url(#m)"
       fill-rule="evenodd"
       id="path143" />
  </g>
  <path
     d="m42.081 23.955s7.5566-1.7712 11.335-3.9764c3.1436-1.8349 10.336-3.5236 10.336-3.5236"
     fill="none"
     stroke="#99ceff"
     stroke-opacity=".2192"
     id="path147" />
  <path
     d="m123.48 23.868s-8.5137-1.4268-11.933-4.2462c-3.2498-2.6797-11.294-3.6669-11.294-3.6669"
     fill="none"
     stroke="#99ceff"
     stroke-opacity=".2196"
     id="path149" />
  <path
     d="m157.93 28.81c-1.5068 2.8206-3.892 7.6536-3.6133 11.389 0.39558 5.3017-1.0741 8.4646-4.3221 10.808-4.1436 2.9902-4.3721 5.2216-4.6346 7.2352"
     fill="none"
     stroke="#99ceff"
     stroke-opacity=".2196"
     id="path151" />
  <path
     d="m6.3697 28.834c0.63299 1.2466 0.82265 3.321 0.84895 4.7315 0.05002 2.6831 1.0382 5.5318 2.4604 7.6655 1.3374 2.0064 2.5462 4.1906 3.1103 6.5311 0.54053 2.2426 1.3264 3.964 3.2806 5.4958 2.0556 1.6112 2.1401 3.544 3.2682 5.2972"
     fill="none"
     stroke="#99ceff"
     stroke-opacity=".2196"
     id="path153" />
  <path
     d="m39.501 138.96c5.4126 1.9642 11.259 0.48347 16.238 2.0288 4.4542 1.3825 9.6245 2.1971 13.766 1.9541 3.5578-0.20873 7.159-0.11034 10.735-0.30484 5.4876-0.29851 10.988 0.74416 16.482-0.16025 4.0113-0.66032 8.1315-1.3368 12.266-1.2372 5.7041 0.13736 11.4-0.82594 16.764-2.2806"
     fill="none"
     stroke="#99ceff"
     stroke-opacity=".2196"
     id="path155" />
  <path
     d="m125.28 17.232c-2.061 11.043-5.9702 25.399 0.52265 37.072"
     fill="none"
     stroke="#99ceff"
     stroke-opacity=".2196"
     id="path157" />
  <path
     d="m40.12 16.994c2.061 11.043 5.9134 25.617-0.5795 37.291"
     fill="none"
     stroke="#99ceff"
     stroke-opacity=".2196"
     id="path159" />
  <path
     d="m70.501 11.455c7.4037-2.3148 14.936-1.9888 23 0"
     fill="none"
     stroke="#5ca2e3"
     stroke-opacity=".2196"
     id="path161" />
  <path
     d="m80.251 22.205h3.75v23.25h-3.75v-23.25z"
     fill="url(#q)"
     stroke="#99ceff"
     stroke-linecap="round"
     stroke-opacity=".2196"
     id="path163" />
  <path
     d="m123.2 24.375s-8.787-1.5138-12.206-4.3331c-3.2498-2.6797-11.294-3.6669-11.294-3.6669"
     fill="none"
     filter="url(#ag)"
     stroke="#000"
     stroke-opacity=".0314"
     id="path165" />
  <path
     d="m41.971 24.615s7.8861-1.7712 11.664-3.9764c3.1436-1.8349 10.336-3.5236 10.336-3.5236"
     fill="none"
     filter="url(#af)"
     stroke="#000"
     stroke-opacity=".0314"
     id="path167" />
  <path
     d="m41.131 17.235c2.061 11.043 6.2429 24.826-0.25 36.5"
     fill="none"
     filter="url(#ae)"
     stroke="#000"
     stroke-opacity=".0365"
     id="path169" />
  <path
     d="m39.285 139.61c5.4126 1.9642 11.259 0.48347 16.238 2.0288 4.4542 1.3825 9.6245 2.1971 13.766 1.9541 3.5578-0.20873 7.159-0.11034 10.735-0.30484 5.4876-0.29851 10.988 0.74416 16.482-0.16025 4.0113-0.66032 8.1315-1.3368 12.266-1.2372 5.7041 0.13736 11.4-0.82594 16.764-2.2806"
     fill="none"
     filter="url(#ad)"
     stroke="#000"
     stroke-opacity=".0639"
     id="path171" />
  <path
     d="m6.8749 28.834c0.63299 1.2466 0.82265 3.321 0.84895 4.7315 0.05002 2.6831 1.0382 5.5318 2.4604 7.6655 1.3374 2.0064 2.5462 4.1906 3.1103 6.5311 0.54053 2.2426 1.3264 3.964 3.2806 5.4958 2.0556 1.6112 2.1401 3.544 3.2682 5.2972"
     fill="none"
     filter="url(#ac)"
     stroke="#000"
     stroke-opacity=".0548"
     id="path173" />
  <path
     d="m158.41 29.455c-1.5068 2.8206-3.892 7.6536-3.6133 11.389 0.39558 5.3017-1.0741 8.4646-4.3221 10.808-4.1436 2.9902-4.3721 5.2216-4.6346 7.2352"
     fill="none"
     filter="url(#ab)"
     stroke="#000"
     stroke-opacity=".0548"
     id="path175" />
  <path
     d="m80.823 22.396h3.75v23.25h-3.75v-23.25z"
     fill="none"
     filter="url(#aa)"
     stroke="#000"
     stroke-linecap="round"
     stroke-opacity=".0502"
     id="path177" />
  <path
     d="m126.02 17.48c-2.061 11.043-5.9702 25.399 0.52265 37.072"
     fill="none"
     filter="url(#y)"
     stroke="#000"
     stroke-opacity=".0411"
     id="path179" />
  <g
     transform="matrix(.03584 0 0 .03584 92.178 18.106)"
     fill="#eee"
     font-family="TitilliumMaps26L"
     font-size="79.306"
     font-weight="900"
     text-anchor="middle"
     id="g213">
    <g
       fill="#eee"
       font-family="Lato"
       font-size="83.711"
       font-weight="normal"
       letter-spacing="0"
       word-spacing="0"
       id="g211" />
  </g>
  <path
     d="m92.71 39.542 0.34683 5.244c3.5038-0.56501 6.4043-0.52085 10.248 0.74082 4.5018 1.4778 6.6278-0.1283 10.423-0.93662 1.8419-0.39228 5.0362-0.52231 6.9213 0.25213 0.14875-2.0642 0.88366-3.8984-0.44732-5.5692 0 0-2.5393-0.72412-5.8767 0.21457-5.6639 1.593-7.8271 1.8719-13.018 0.06057-2.5029-0.87334-4.7177-1.2015-8.5967-0.0063z"
     fill="none"
     stroke="#5488ba"
     id="path217" />
  <path
     d="m92.71 39.183 0.34683 5.244c3.5038-0.56501 6.4043-0.52085 10.248 0.74082 4.5018 1.4778 6.6278-0.1283 10.423-0.93662 1.8419-0.39228 5.0362-0.52231 6.9213 0.25213 0.14875-2.0642 0.88366-3.8984-0.44732-5.5692 0 0-2.5393-0.72412-5.8767 0.21457-5.6639 1.593-7.8271 1.8719-13.018 0.06057-2.5029-0.87334-4.7177-1.2015-8.5967-0.0063z"
     fill="none"
     stroke="#000"
     stroke-opacity=".0502"
     id="path219" />
  <path
     d="m93.068 45.162c1.0056 4.3596 0.44507 8.7015 0.16775 13.11 1.8993 1.7511 3.1904 3.5782 3.9383 5.4733 2.2407-0.01339 5.2651 0.52852 8.1953-0.04031 1.8553-0.36016 4.7498-0.17461 6.0792 0.03471 4.2368 0.6671 6.3157-0.08279 6.3157-0.08279 0.96847-1.7684 2.3182-3.0604 3.861-4.1109 0 0-1.5479-9.5737-0.93581-14.512"
     fill="none"
     stroke="#578abd"
     id="path221" />
  <path
     d="m93.068 45.641c1.0056 4.3596 0.44507 8.7015 0.16775 13.11 1.8993 1.7511 3.1904 3.5782 3.9383 5.4733 2.2407-0.01339 5.2651 0.52852 8.1953-0.04031 1.8553-0.36016 4.7498-0.17461 6.0792 0.03471 4.2368 0.6671 6.3157-0.08279 6.3157-0.08279 0.96847-1.7684 2.3182-3.0604 3.861-4.1109 0 0-1.5479-9.5737-0.93581-14.512"
     fill="none"
     filter="url(#ah)"
     stroke="#000"
     stroke-opacity=".0594"
     id="path223" />
  <path
     d="m80.306 22.789-7.0939 8.8901c-7.7328-5.9371-8.595-13.761-10.674-20.326"
     filter="url(#s)"
     opacity=".206"
     id="path225" />
  <path
     d="m84.16 22.24 7.2152 8.6108c7.7328-5.9371 8.975-13.243 10.838-20.562"
     filter="url(#t)"
     opacity=".206"
     id="path227" />
  <path
     d="m79.157 21.257c-2.1537-1.6765-4.2886-4.0002-5.9372-6.4623-0.5548-0.82859-1.6608-2.6718-1.6608-2.7677 0-0.09392 2.378-0.68042 3.6784-0.9072 4.6477-0.81059 10.116-0.6669 15.32 0.40251 2.0218 0.4155 2.4993 0.52663 2.4993 0.58178 0 0.02965-0.24247 0.45406-0.53881 0.94314-2.0703 3.4168-4.6398 6.2326-7.6954 8.4331l-0.59137 0.42589h-4.2405l-0.83396-0.64917z"
     fill="url(#n)"
     id="path229" />
  <path
     d="m67.538 3.7625c2.7397 8.0624 6.1678 14.452 12.235 18.521l-6.7711 7.9217c-7.7328-5.9371-8.057-12.685-10.136-19.25"
     fill="url(#p)"
     id="path231" />
  <path
     d="m97.08 3.6059c-2.7397 8.0624-6.5112 14.28-12.578 18.349l7 7.75c7.7328-5.9371 8.1143-13.028 10.193-19.593"
     fill="url(#r)"
     id="path233" />
  <path
     d="m92.23986,10.38051c-5.66017-1.32207-11.71555-1.61296-16.71611-.80303-.99102.16051-3.15.63446-3.89153.85428-.29707.08806-.56352.16012-.59212.16012-.2082,0-2.84041-6.24448-2.8296-6.71277 .001-.06195.0544-.18103.11772-.26462 .11193-.14776.16701-.14606 1.97963.06105 4.77324.54538 8.93922.74965 13.79874.67658 4.29795-.06463 7.44879-.2667 11.18592-.71737 .75732-.09133 1.39023-.15277 1.40646-.13653 .0497.04968-.74887,2.15257-1.359,3.57879-.7843,1.83334-1.64891,3.55174-1.79496,3.56746-.066.0071-.65326-.11168-1.30515-.26394z"
     fill="url(#o)"
     id="path235" />
  <path
     transform="matrix(.00656 0 0 .00656 79.815 23.872)"
     d="m568.57 398.79c0 104.54-84.746 189.29-189.29 189.29s-189.29-84.746-189.29-189.29 84.746-189.29 189.29-189.29 189.29 84.746 189.29 189.29z"
     fill="url(#c)"
     id="path237" />
  <path
     transform="matrix(-.00601 0 0 .00601 84.593 24.099)"
     d="m568.57 398.79c0 104.54-84.746 189.29-189.29 189.29s-189.29-84.746-189.29-189.29 84.746-189.29 189.29-189.29 189.29 84.746 189.29 189.29z"
     fill="url(#b)"
     id="path239" />
  <path
     transform="matrix(.00544 0 0 .00544 80.3 24.306)"
     d="m568.57 398.79c0 104.54-84.746 189.29-189.29 189.29s-189.29-84.746-189.29-189.29 84.746-189.29 189.29-189.29 189.29 84.746 189.29 189.29z"
     fill="url(#a)"
     filter="url(#d)"
     id="path241" />
  <path
     transform="matrix(.00656 0 0 .00656 79.921 23.972)"
     d="m344.46 348.79c0 9.7631-7.9146 17.678-17.678 17.678s-17.678-7.9146-17.678-17.678 7.9146-17.678 17.678-17.678 17.678 7.9146 17.678 17.678z"
     fill-opacity=".9412"
     id="path243" />
  <path
     transform="matrix(.0059 0 0 .0059 80.135 24.202)"
     d="m344.46 348.79c0 9.7631-7.9146 17.678-17.678 17.678s-17.678-7.9146-17.678-17.678 7.9146-17.678 17.678-17.678 17.678 7.9146 17.678 17.678z"
     id="path245" />
  <path
     transform="matrix(.00656 0 0 .00656 80.391 23.972)"
     d="m344.46 348.79c0 9.7631-7.9146 17.678-17.678 17.678s-17.678-7.9146-17.678-17.678 7.9146-17.678 17.678-17.678 17.678 7.9146 17.678 17.678z"
     fill-opacity=".9412"
     id="path247" />
  <path
     transform="matrix(.0059 0 0 .0059 80.606 24.202)"
     d="m344.46 348.79c0 9.7631-7.9146 17.678-17.678 17.678s-17.678-7.9146-17.678-17.678 7.9146-17.678 17.678-17.678 17.678 7.9146 17.678 17.678z"
     id="path249" />
  <path
     transform="matrix(.00656 0 0 .00656 80.391 24.482)"
     d="m344.46 348.79c0 9.7631-7.9146 17.678-17.678 17.678s-17.678-7.9146-17.678-17.678 7.9146-17.678 17.678-17.678 17.678 7.9146 17.678 17.678z"
     fill-opacity=".9412"
     id="path251" />
  <path
     transform="matrix(.0059 0 0 .0059 80.606 24.712)"
     d="m344.46 348.79c0 9.7631-7.9146 17.678-17.678 17.678s-17.678-7.9146-17.678-17.678 7.9146-17.678 17.678-17.678 17.678 7.9146 17.678 17.678z"
     id="path253" />
  <path
     transform="matrix(.00656 0 0 .00656 79.924 24.482)"
     d="m344.46 348.79c0 9.7631-7.9146 17.678-17.678 17.678s-17.678-7.9146-17.678-17.678 7.9146-17.678 17.678-17.678 17.678 7.9146 17.678 17.678z"
     fill-opacity=".9412"
     id="path255" />
  <path
     transform="matrix(.0059 0 0 .0059 80.139 24.712)"
     d="m344.46 348.79c0 9.7631-7.9146 17.678-17.678 17.678s-17.678-7.9146-17.678-17.678 7.9146-17.678 17.678-17.678 17.678 7.9146 17.678 17.678z"
     id="path257" />
  <path
     transform="matrix(.00656 0 0 .00656 79.741 29.88)"
     d="m568.57 398.79c0 104.54-84.746 189.29-189.29 189.29s-189.29-84.746-189.29-189.29 84.746-189.29 189.29-189.29 189.29 84.746 189.29 189.29z"
     fill="url(#c)"
     id="path259" />
  <path
     transform="matrix(-.00601 0 0 .00601 84.518 30.106)"
     d="m568.57 398.79c0 104.54-84.746 189.29-189.29 189.29s-189.29-84.746-189.29-189.29 84.746-189.29 189.29-189.29 189.29 84.746 189.29 189.29z"
     fill="url(#b)"
     id="path261" />
  <path
     transform="matrix(.00544 0 0 .00544 80.225 30.313)"
     d="m568.57 398.79c0 104.54-84.746 189.29-189.29 189.29s-189.29-84.746-189.29-189.29 84.746-189.29 189.29-189.29 189.29 84.746 189.29 189.29z"
     fill="url(#a)"
     filter="url(#d)"
     id="path263" />
  <path
     transform="matrix(.00656 0 0 .00656 79.847 29.979)"
     d="m344.46 348.79c0 9.7631-7.9146 17.678-17.678 17.678s-17.678-7.9146-17.678-17.678 7.9146-17.678 17.678-17.678 17.678 7.9146 17.678 17.678z"
     fill-opacity=".9412"
     id="path265" />
  <path
     transform="matrix(.0059 0 0 .0059 80.061 30.209)"
     d="m344.46 348.79c0 9.7631-7.9146 17.678-17.678 17.678s-17.678-7.9146-17.678-17.678 7.9146-17.678 17.678-17.678 17.678 7.9146 17.678 17.678z"
     id="path267" />
  <path
     transform="matrix(.00656 0 0 .00656 80.317 29.979)"
     d="m344.46 348.79c0 9.7631-7.9146 17.678-17.678 17.678s-17.678-7.9146-17.678-17.678 7.9146-17.678 17.678-17.678 17.678 7.9146 17.678 17.678z"
     fill-opacity=".9412"
     id="path269" />
  <path
     transform="matrix(.0059 0 0 .0059 80.531 30.209)"
     d="m344.46 348.79c0 9.7631-7.9146 17.678-17.678 17.678s-17.678-7.9146-17.678-17.678 7.9146-17.678 17.678-17.678 17.678 7.9146 17.678 17.678z"
     id="path271" />
  <path
     transform="matrix(.00656 0 0 .00656 80.317 30.489)"
     d="m344.46 348.79c0 9.7631-7.9146 17.678-17.678 17.678s-17.678-7.9146-17.678-17.678 7.9146-17.678 17.678-17.678 17.678 7.9146 17.678 17.678z"
     fill-opacity=".9412"
     id="path273" />
  <path
     transform="matrix(.0059 0 0 .0059 80.531 30.719)"
     d="m344.46 348.79c0 9.7631-7.9146 17.678-17.678 17.678s-17.678-7.9146-17.678-17.678 7.9146-17.678 17.678-17.678 17.678 7.9146 17.678 17.678z"
     id="path275" />
  <path
     transform="matrix(.00656 0 0 .00656 79.85 30.489)"
     d="m344.46 348.79c0 9.7631-7.9146 17.678-17.678 17.678s-17.678-7.9146-17.678-17.678 7.9146-17.678 17.678-17.678 17.678 7.9146 17.678 17.678z"
     fill-opacity=".9412"
     id="path277" />
  <path
     transform="matrix(.0059 0 0 .0059 80.064 30.719)"
     d="m344.46 348.79c0 9.7631-7.9146 17.678-17.678 17.678s-17.678-7.9146-17.678-17.678 7.9146-17.678 17.678-17.678 17.678 7.9146 17.678 17.678z"
     id="path279" />
  <path
     transform="matrix(.00656 0 0 .00656 79.72 35.791)"
     d="m568.57 398.79c0 104.54-84.746 189.29-189.29 189.29s-189.29-84.746-189.29-189.29 84.746-189.29 189.29-189.29 189.29 84.746 189.29 189.29z"
     fill="url(#c)"
     id="path281" />
  <path
     transform="matrix(-.00601 0 0 .00601 84.497 36.018)"
     d="m568.57 398.79c0 104.54-84.746 189.29-189.29 189.29s-189.29-84.746-189.29-189.29 84.746-189.29 189.29-189.29 189.29 84.746 189.29 189.29z"
     fill="url(#b)"
     id="path283" />
  <path
     transform="matrix(.00544 0 0 .00544 80.204 36.225)"
     d="m568.57 398.79c0 104.54-84.746 189.29-189.29 189.29s-189.29-84.746-189.29-189.29 84.746-189.29 189.29-189.29 189.29 84.746 189.29 189.29z"
     fill="url(#a)"
     filter="url(#d)"
     id="path285" />
  <path
     transform="matrix(.00656 0 0 .00656 79.826 35.891)"
     d="m344.46 348.79c0 9.7631-7.9146 17.678-17.678 17.678s-17.678-7.9146-17.678-17.678 7.9146-17.678 17.678-17.678 17.678 7.9146 17.678 17.678z"
     fill-opacity=".9412"
     id="path287" />
  <path
     transform="matrix(.0059 0 0 .0059 80.04 36.121)"
     d="m344.46 348.79c0 9.7631-7.9146 17.678-17.678 17.678s-17.678-7.9146-17.678-17.678 7.9146-17.678 17.678-17.678 17.678 7.9146 17.678 17.678z"
     id="path289" />
  <path
     transform="matrix(.00656 0 0 .00656 80.296 35.891)"
     d="m344.46 348.79c0 9.7631-7.9146 17.678-17.678 17.678s-17.678-7.9146-17.678-17.678 7.9146-17.678 17.678-17.678 17.678 7.9146 17.678 17.678z"
     fill-opacity=".9412"
     id="path291" />
  <path
     transform="matrix(.0059 0 0 .0059 80.51 36.121)"
     d="m344.46 348.79c0 9.7631-7.9146 17.678-17.678 17.678s-17.678-7.9146-17.678-17.678 7.9146-17.678 17.678-17.678 17.678 7.9146 17.678 17.678z"
     id="path293" />
  <path
     transform="matrix(.00656 0 0 .00656 80.296 36.401)"
     d="m344.46 348.79c0 9.7631-7.9146 17.678-17.678 17.678s-17.678-7.9146-17.678-17.678 7.9146-17.678 17.678-17.678 17.678 7.9146 17.678 17.678z"
     fill-opacity=".9412"
     id="path295" />
  <path
     transform="matrix(.0059 0 0 .0059 80.51 36.631)"
     d="m344.46 348.79c0 9.7631-7.9146 17.678-17.678 17.678s-17.678-7.9146-17.678-17.678 7.9146-17.678 17.678-17.678 17.678 7.9146 17.678 17.678z"
     id="path297" />
  <path
     transform="matrix(.00656 0 0 .00656 79.829 36.401)"
     d="m344.46 348.79c0 9.7631-7.9146 17.678-17.678 17.678s-17.678-7.9146-17.678-17.678 7.9146-17.678 17.678-17.678 17.678 7.9146 17.678 17.678z"
     fill-opacity=".9412"
     id="path299" />
  <path
     transform="matrix(.0059 0 0 .0059 80.043 36.631)"
     d="m344.46 348.79c0 9.7631-7.9146 17.678-17.678 17.678s-17.678-7.9146-17.678-17.678 7.9146-17.678 17.678-17.678 17.678 7.9146 17.678 17.678z"
     id="path301" />
  <path
     inkscape:connector-curvature="0"
     style="fill:#eeeeee"
     d="m 95.512862,39.774813 c -0.24367,-0.03254 -0.51189,0.04793 -0.62316,0.25768 -0.15519,0.2497 -0.02752,0.59426 0.27829,0.73512 l 0.0034,4.7e-4 c 0.32997,0.1791 0.75501,0.28898 1.12439,0.72298 l 0.13995,0.16218 -0.14299,0.12888 c -0.42781,0.38496 -0.91334,0.39909 -1.31276,0.47671 l -0.0037,-5.2e-4 c -0.36167,0.04749 -0.61967,0.32096 -0.53521,0.60939 l -4.7e-4,0.0029 c 0.06536,0.28855 0.49018,0.47692 0.8544,0.44463 l 0.004,4.5e-4 c 0.3711,-0.01601 0.68856,-0.26251 0.62751,-0.53888 -0.03012,-0.13636 -0.0762,-0.20238 -0.12038,-0.24334 -0.02208,-0.02047 -0.04168,-0.03383 -0.05404,-0.04566 l -0.06553,-0.04661 0.08918,-0.04469 0.22927,-0.08316 c 0.20314,-0.06551 0.50058,-0.16124 0.83165,-0.33681 0.58311,0.34092 1.404875,0.724 1.883225,0.90967 0.47835,0.18567 0.93949,-0.0095 1.11176,-0.15026 -0.88918,-0.27746 -1.70455,-0.64031 -2.453095,-1.06376 0.741165,-0.44761 1.411185,-0.95257 1.984645,-1.50812 -0.34353,-0.15115 -0.66859,-0.01542 -0.89104,0.1368 -0.48975,0.38412 -1.033645,0.73492 -1.617035,1.05115 l -0.75849,-0.42559 c -0.0878,-0.04784 -0.15468,-0.08724 -0.19225,-0.1183 -0.01879,-0.01554 -0.06656,-0.05001 -0.06656,-0.05001 0.04888,-0.02387 0.10238,-0.07158 0.14109,-0.10831 0.03871,-0.03673 0.08497,-0.09224 0.11668,-0.19304 0.08384,-0.26652 -0.13073,-0.5514 -0.41723,-0.64197 -0.05505,-0.02035 -0.1159,-0.02966 -0.16545,-0.04002 l -9e-6,6.4e-5 z m -0.06122,0.22383 c 0.11132,0.0083 0.22136,0.05436 0.28834,0.12714 0.10034,0.10904 0.1096,0.24502 0.05484,0.3506 -0.05476,0.10558 -0.1697,0.17616 -0.31987,0.15787 l -0.0034,-4.1e-4 c -0.1385,-0.0098 -0.26399,-0.09505 -0.32885,-0.20441 -0.06486,-0.10936 -0.06787,-0.23438 0.02356,-0.32842 l 4.2e-4,-0.0029 c 0.06527,-0.07953 0.17373,-0.10772 0.28498,-0.0995 l -2.4e-5,-5e-6 z m -0.21248,2.46689 0.0306,0.0037 c 0.16827,0.02014 0.27921,0.11301 0.31834,0.22791 0.03913,0.1149 0.0026,0.24746 -0.14077,0.3305 -0.09556,0.05536 -0.2422,0.07563 -0.3752,0.05291 -0.133,-0.02272 -0.24666,-0.08501 -0.29614,-0.18128 l -0.0035,-0.0034 c -0.0723,-0.11451 -0.02922,-0.2257 0.06838,-0.31023 0.0976,-0.08453 0.24948,-0.13609 0.39829,-0.12006 l -3e-5,-1.1e-5 z"
     id="path215" />
</svg>
