<?xml version="1.0" encoding="UTF-8"?>
<svg width="91.44mm" height="91.44mm" clip-rule="evenodd" fill-rule="evenodd" image-rendering="optimizeQuality" shape-rendering="geometricPrecision" text-rendering="geometricPrecision" version="1.1" viewBox="0 0 9144 9144" xmlns="http://www.w3.org/2000/svg">
 <defs>
  <style type="text/css">.fil1 {fill:white;fill-rule:nonzero} .fil0 {fill:url(#a)}</style>
  <linearGradient id="a" x1="10043" x2="-898.9" y1="6303" y2="2841" gradientUnits="userSpaceOnUse">
   <stop stop-color="#48CFAE" offset="0"/>
   <stop stop-color="#4FC0E8" offset="1"/>
  </linearGradient>
 </defs>
 <polygon class="fil0" points="0 0 9144 0 9144 9144 0 9144"/>
 <path class="fil1" d="m4603 3552l1551 888 377-198v-1581l-927 346c-11 6-23 9-36 9h-1325l-723 814 553 158 396-446c31-34 85-38 120-7 5 5 10 11 14 17zm-2187 2067l190-328-257-540c-6-11-10-25-10-39v-1991h1c0-20 7-40 21-56 32-35 85-37 120-6l636 577 71-135c16-30 48-47 80-45h713l158-178c16-20 40-32 66-32h1348l1033-385c44-17 92 6 108 49 4 10 6 20 6 30v1753c0 35-21 64-51 78l-321 169 434 248c41 23 55 75 32 116l-3 4-300 519c-23 40-75 54-115 31l-4-3-77-44-230 397c-23 40-75 54-115 31l-4-3-118-68-228 396c-24 40-76 54-116 31l-183-106-246 427c-23 40-75 54-115 31l-514-297-229 397h-1c-23 40-74 54-114 30l-405-233c-1-1-3-1-4-2-2-1-3-2-5-3l-399-231c-2-1-3-1-5-2-1-1-3-2-4-3l-813-469c-40-23-54-75-31-115zm292-506l132-228c23-40 74-54 115-31l408 236h1l403 233c2 1 4 2 5 3 2 1 3 2 5 3l399 230c2 1 3 2 5 3 1 1 3 2 4 3l400 230c1 1 3 2 4 3 41 23 55 75 31 115l-110 190 441 256 204-354-264-153c-40-23-54-75-31-115 24-40 75-54 116-31l520 300 186-322-520-300c-40-24-54-75-31-115 23-41 75-55 115-32l588 340c2 1 4 2 5 3 2 1 4 2 5 3l117 67 188-324-715-413c-41-23-55-74-31-115 23-40 74-54 115-31l784 453c1 1 3 1 4 2 2 1 3 2 5 3l76 44 218-376-2061-1180-379 425c-20 25-55 36-88 27l-733-210c-12-3-23-9-33-18-35-31-38-84-7-119l527-593h-517l-98 186c-22 41-73 57-114 35-8-4-16-10-22-16l-571-518v1781l199 420zm236-71l-166 288c-2 4-5 9-8 13l-166 287 263 151 339-587-262-152zm408 236l-339 588 262 151 340-587-263-152zm409 236l-339 588 262 151 339-587-262-152zm409 236l-340 588 263 151 339-587-262-152z"/>
</svg>
