<?xml version="1.0" encoding="UTF-8"?>
<svg viewBox="0 0 58.808228 57.795181" xmlns="http://www.w3.org/2000/svg">
 <defs>
  <linearGradient id="b" x1="-56.265" x2="-57.484" y1="465.39" y2="467.11" gradientUnits="userSpaceOnUse" spreadMethod="reflect">
   <stop stop-color="#d3d7cf" offset="0"/>
   <stop stop-color="#888a85" offset="1"/>
  </linearGradient>
  <linearGradient id="a" x1="92.872" x2="96.589" y1="375.53" y2="380.96" gradientUnits="userSpaceOnUse">
   <stop stop-color="#d3d7cf" offset="0"/>
   <stop offset="1"/>
  </linearGradient>
 </defs>
 <g transform="translate(80.706 -422.63)">
  <path d="m-57.93767,462.72754c-.22568-.004-.45841.0623-.71875.15625-1.04138.37582-1.90625,1.4416-1.90625,2.375 0,.58338.3419.97089.84375,1.09375l5.50609,3.17079 3.09375-3.0625-6.16234-3.51454-.03125-.0312c-.17776-.10392-.38352-.18305-.625-.1875z" fill="url(#b)" stroke="#000" stroke-linecap="round" stroke-linejoin="round" stroke-width=".5"/>
  <path transform="matrix(.65357 -.23586 0 .65357 -123.12 248.4)" d="m110.36 374.49c0 1.4289-1.2924 2.5873-2.8866 2.5873s-2.8866-1.1584-2.8866-2.5873 1.2924-2.5873 2.8866-2.5873 2.8866 1.1584 2.8866 2.5873z" fill="#555753" stroke="#000" stroke-linecap="round" stroke-linejoin="round" stroke-width=".76503"/>
  <g transform="translate(-168.69 75.211)">
   <path transform="matrix(-.18314 -.2966 .2966 -.18314 41.282 467.88)" d="m148.59 262c0 4.4415-5.3351 8.042-11.916 8.042s-11.916-3.6005-11.916-8.042 5.3351-8.042 11.916-8.042 11.916 3.6005 11.916 8.042z" fill="#c00"/>
   <path d="m92.872 375.53c-0.39582-3e-3 -0.76745 0.091-1.0966 0.29421l-2.2317 1.2838 4.0599 7.2617 2.8123-1.685c1.0475-0.94151 1.0475-2.9964-0.06687-4.801-0.90351-1.4632-2.2896-2.3455-3.477-2.3537z" fill="url(#a)" fill-rule="evenodd" stroke="#000" stroke-width=".21397"/>
   <path transform="matrix(-.18314 -.2966 .2966 -.18314 38.893 469.26)" d="m148.59 262c0 4.4415-5.3351 8.042-11.916 8.042s-11.916-3.6005-11.916-8.042 5.3351-8.042 11.916-8.042 11.916 3.6005 11.916 8.042z" fill="#555753" stroke="#000" stroke-linejoin="bevel" stroke-width=".61383"/>
   <path transform="matrix(-.10007 -.16206 .16206 -.10007 62.786 428.93)" d="m148.59 262c0 4.4415-5.3351 8.042-11.916 8.042s-11.916-3.6005-11.916-8.042 5.3351-8.042 11.916-8.042 11.916 3.6005 11.916 8.042z" fill="#d3d7cf"/>
  </g>
  <g transform="translate(-162.34 79.32)">
   <path transform="matrix(-.18314 -.2966 .2966 -.18314 41.282 467.88)" d="m148.59 262c0 4.4415-5.3351 8.042-11.916 8.042s-11.916-3.6005-11.916-8.042 5.3351-8.042 11.916-8.042 11.916 3.6005 11.916 8.042z" fill="#c00"/>
   <path d="m92.872 375.53c-0.39582-3e-3 -0.76745 0.091-1.0966 0.29421l-2.2317 1.2838 4.0599 7.2617 2.8123-1.685c1.0475-0.94151 1.0475-2.9964-0.06687-4.801-0.90351-1.4632-2.2896-2.3455-3.477-2.3537z" fill="url(#a)" fill-rule="evenodd" stroke="#000" stroke-width=".21397"/>
   <path transform="matrix(-.18314 -.2966 .2966 -.18314 38.893 469.26)" d="m148.59 262c0 4.4415-5.3351 8.042-11.916 8.042s-11.916-3.6005-11.916-8.042 5.3351-8.042 11.916-8.042 11.916 3.6005 11.916 8.042z" fill="#555753" stroke="#000" stroke-linejoin="bevel" stroke-width=".61383"/>
   <path transform="matrix(-.10007 -.16206 .16206 -.10007 62.786 428.93)" d="m148.59 262c0 4.4415-5.3351 8.042-11.916 8.042s-11.916-3.6005-11.916-8.042 5.3351-8.042 11.916-8.042 11.916 3.6005 11.916 8.042z" fill="#d3d7cf"/>
  </g>
  <path d="m-65.113 441.76-15.343 8.8583 30.686 17.717 15.343-8.8583-30.686-17.717z" fill="#555753" fill-rule="evenodd" stroke="#000" stroke-linecap="round" stroke-linejoin="bevel" stroke-width=".5"/>
  <path d="m-79.206 449.58 30.686 17.717v-17.717l-30.686-17.717v17.717z" fill="#d3d7cf" fill-rule="evenodd" stroke="#000" stroke-linejoin="bevel" stroke-width=".5"/>
  <path d="m-33.302 458.32-15.343 8.8583v-17.717l15.343-8.8583v17.717z" fill="#888a85" fill-rule="evenodd" stroke="#000" stroke-linecap="round" stroke-linejoin="bevel" stroke-width=".5"/>
  <path d="m-63.988 422.88-15.343 8.8583 30.686 17.717 15.343-8.8583-30.686-17.717z" fill="#eeeeec" fill-rule="evenodd" stroke="#000" stroke-linecap="round" stroke-linejoin="bevel" stroke-width=".5"/>
  <g transform="translate(-139.54 93.459)">
   <path transform="matrix(-.18314 -.2966 .2966 -.18314 41.282 467.88)" d="m148.59 262c0 4.4415-5.3351 8.042-11.916 8.042s-11.916-3.6005-11.916-8.042 5.3351-8.042 11.916-8.042 11.916 3.6005 11.916 8.042z" fill="#c00"/>
   <path d="m92.872 375.53c-0.39582-3e-3 -0.76745 0.091-1.0966 0.29421l-2.2317 1.2838 4.0599 7.2617 2.8123-1.685c1.0475-0.94151 1.0475-2.9964-0.06687-4.801-0.90351-1.4632-2.2896-2.3455-3.477-2.3537z" fill="url(#a)" fill-rule="evenodd" stroke="#000" stroke-width=".21397"/>
   <path transform="matrix(-.18314 -.2966 .2966 -.18314 38.893 469.26)" d="m148.59 262c0 4.4415-5.3351 8.042-11.916 8.042s-11.916-3.6005-11.916-8.042 5.3351-8.042 11.916-8.042 11.916 3.6005 11.916 8.042z" fill="#555753" stroke="#000" stroke-linejoin="bevel" stroke-width=".61383"/>
   <path transform="matrix(-.10007 -.16206 .16206 -.10007 62.786 428.93)" d="m148.59 262c0 4.4415-5.3351 8.042-11.916 8.042s-11.916-3.6005-11.916-8.042 5.3351-8.042 11.916-8.042 11.916 3.6005 11.916 8.042z" fill="#d3d7cf"/>
  </g>
  <path d="m-44.512 472.43c0.89924 1.4563 1.2122 3.0276 0.96875 4.2812l6 3.4688v-17.719l-9.9688-5.625 0.0671 10.969c0.43258 1.1038 0.41242 2.4355 2.9329 4.625z" fill="#888a85" fill-rule="evenodd" stroke="#000" stroke-linejoin="bevel" stroke-width=".5"/>
  <path d="m-22.192 471.31v-17.717l-15.343 8.8583v17.717l15.343-8.8583z" fill="#555753" fill-rule="evenodd" stroke="#000" stroke-linejoin="bevel" stroke-width=".5"/>
  <path d="m-22.148 460.28-0.04419-6.6888-15.343 8.8583 0.04419 6.6888 15.343-8.8583z" fill="#729fcf" fill-rule="evenodd" stroke="#000" stroke-linejoin="bevel" stroke-width=".5"/>
  <path d="m-38.544 463.13-7.7024-4.3126 0.09424 5.0807 7.5154 5.1461 0.09276-5.9143z" fill="#729fcf" fill-rule="evenodd" stroke="#000" stroke-width=".5"/>
  <path d="m-32.036 448.05-15.343 8.8583 9.7965 5.656 15.343-8.8583-9.7965-5.656z" fill="#d3d7cf" fill-rule="evenodd" stroke="#000" stroke-linejoin="bevel" stroke-width=".5"/>
  <path transform="matrix(.65357 -.23586 0 .65357 -104.79 256.61)" d="m110.36 374.49c0 1.4289-1.2924 2.5873-2.8866 2.5873s-2.8866-1.1584-2.8866-2.5873 1.2924-2.5873 2.8866-2.5873 2.8866 1.1584 2.8866 2.5873z" fill="#d3d7cf"/>
  <path transform="matrix(.43922 -.15851 0 .43922 -81.752 328.57)" d="m110.36 374.49c0 1.4289-1.2924 2.5873-2.8866 2.5873s-2.8866-1.1584-2.8866-2.5873 1.2924-2.5873 2.8866-2.5873 2.8866 1.1584 2.8866 2.5873z" fill="#eeeeec"/>
  <path transform="matrix(.14598 -.052681 0 .14598 -50.726 426.75)" d="m110.36 374.49c0 1.4289-1.2924 2.5873-2.8866 2.5873s-2.8866-1.1584-2.8866-2.5873 1.2924-2.5873 2.8866-2.5873 2.8866 1.1584 2.8866 2.5873z" fill="#fff"/>
  <path transform="matrix(.65357 -.23586 0 .65357 -94.623 250.58)" d="m110.36 374.49c0 1.4289-1.2924 2.5873-2.8866 2.5873s-2.8866-1.1584-2.8866-2.5873 1.2924-2.5873 2.8866-2.5873 2.8866 1.1584 2.8866 2.5873z" fill="#d3d7cf"/>
  <path transform="matrix(.43922 -.15851 0 .43922 -71.587 322.54)" d="m110.36 374.49c0 1.4289-1.2924 2.5873-2.8866 2.5873s-2.8866-1.1584-2.8866-2.5873 1.2924-2.5873 2.8866-2.5873 2.8866 1.1584 2.8866 2.5873z" fill="#eeeeec"/>
  <path transform="matrix(.14598 -.052681 0 .14598 -40.561 420.72)" d="m110.36 374.49c0 1.4289-1.2924 2.5873-2.8866 2.5873s-2.8866-1.1584-2.8866-2.5873 1.2924-2.5873 2.8866-2.5873 2.8866 1.1584 2.8866 2.5873z" fill="#fff"/>
  <path transform="matrix(.28938 -.10443 0 .28938 -66.889 376.09)" d="m110.36 374.49c0 1.4289-1.2924 2.5873-2.8866 2.5873s-2.8866-1.1584-2.8866-2.5873 1.2924-2.5873 2.8866-2.5873 2.8866 1.1584 2.8866 2.5873z" fill="#d3d7cf"/>
  <path transform="matrix(.19447 -.070182 0 .19447 -56.689 407.95)" d="m110.36 374.49c0 1.4289-1.2924 2.5873-2.8866 2.5873s-2.8866-1.1584-2.8866-2.5873 1.2924-2.5873 2.8866-2.5873 2.8866 1.1584 2.8866 2.5873z" fill="#f57900"/>
  <path transform="matrix(.064634 -.023325 0 .064634 -42.952 451.42)" d="m110.36 374.49c0 1.4289-1.2924 2.5873-2.8866 2.5873s-2.8866-1.1584-2.8866-2.5873 1.2924-2.5873 2.8866-2.5873 2.8866 1.1584 2.8866 2.5873z" fill="#fff"/>
  <path transform="matrix(.28938 -.10443 0 .28938 -54.72 369.76)" d="m110.36 374.49c0 1.4289-1.2924 2.5873-2.8866 2.5873s-2.8866-1.1584-2.8866-2.5873 1.2924-2.5873 2.8866-2.5873 2.8866 1.1584 2.8866 2.5873z" fill="#d3d7cf"/>
  <path transform="matrix(.19447 -.070182 0 .19447 -44.52 401.62)" d="m110.36 374.49c0 1.4289-1.2924 2.5873-2.8866 2.5873s-2.8866-1.1584-2.8866-2.5873 1.2924-2.5873 2.8866-2.5873 2.8866 1.1584 2.8866 2.5873z" fill="#f57900"/>
  <path transform="matrix(.064634 -.023325 0 .064634 -30.783 445.1)" d="m110.36 374.49c0 1.4289-1.2924 2.5873-2.8866 2.5873s-2.8866-1.1584-2.8866-2.5873 1.2924-2.5873 2.8866-2.5873 2.8866 1.1584 2.8866 2.5873z" fill="#fff"/>
  <path d="m-33.056 466.15 0.89755-0.45148 5.1048-8.7111-1.6855 0.97314-4.3168 8.1894z" fill="#fff" fill-rule="evenodd"/>
  <path d="m-31.094 465.08 0.89755-0.45148 5.1048-8.7111-1.6855 0.97314-4.3168 8.1894z" fill="#fff" fill-rule="evenodd"/>
  <g transform="translate(-62.788 36.424)" stroke-width=".5">
   <path d="m-15.343 413.58v-17.565" fill="none" stroke="#000"/>
   <path d="m-15.091 413.86v-17.565" fill="#eeeeec" fill-rule="evenodd" stroke="#eeeeec"/>
  </g>
  <g transform="translate(-59.97 38.236)" stroke-width=".5">
   <path d="m-15.343 413.58v-17.565" fill="none" stroke="#000"/>
   <path d="m-15.091 413.86v-17.565" fill="#eeeeec" fill-rule="evenodd" stroke="#eeeeec"/>
  </g>
  <g transform="translate(-56.65 39.959)" stroke-width=".5">
   <path d="m-15.343 413.58v-17.565" fill="none" stroke="#000"/>
   <path d="m-15.091 413.86v-17.565" fill="#eeeeec" fill-rule="evenodd" stroke="#eeeeec"/>
  </g>
  <g transform="translate(-53.833 41.683)" stroke-width=".5">
   <path d="m-15.343 413.58v-17.565" fill="none" stroke="#000"/>
   <path d="m-15.091 413.86v-17.565" fill="#eeeeec" fill-rule="evenodd" stroke="#eeeeec"/>
  </g>
  <g transform="translate(-51.016 43.495)" stroke-width=".5">
   <path d="m-15.343 413.58v-17.565" fill="none" stroke="#000"/>
   <path d="m-15.091 413.86v-17.565" fill="#eeeeec" fill-rule="evenodd" stroke="#eeeeec"/>
  </g>
  <g transform="translate(-47.696 45.218)" stroke-width=".5">
   <path d="m-15.343 413.58v-17.565" fill="none" stroke="#000"/>
   <path d="m-15.091 413.86v-17.565" fill="#eeeeec" fill-rule="evenodd" stroke="#eeeeec"/>
  </g>
  <g transform="translate(-44.628 47.119)" stroke-width=".5">
   <path d="m-15.343 413.58v-17.565" fill="none" stroke="#000"/>
   <path d="m-15.091 413.86v-17.565" fill="#eeeeec" fill-rule="evenodd" stroke="#eeeeec"/>
  </g>
  <g transform="translate(-41.81 48.931)" stroke-width=".5">
   <path d="m-15.343 413.58v-17.565" fill="none" stroke="#000"/>
   <path d="m-15.091 413.86v-17.565" fill="#eeeeec" fill-rule="evenodd" stroke="#eeeeec"/>
  </g>
  <g transform="translate(-38.49 50.654)" stroke-width=".5">
   <path d="m-15.343 413.58v-17.565" fill="none" stroke="#000"/>
   <path d="m-15.091 413.86v-17.565" fill="#eeeeec" fill-rule="evenodd" stroke="#eeeeec"/>
  </g>
  <g transform="translate(-35.422 52.378)" stroke-width=".5">
   <path d="m-15.343 413.58v-17.565" fill="none" stroke="#000"/>
   <path d="m-15.091 413.86v-17.565" fill="#eeeeec" fill-rule="evenodd" stroke="#eeeeec"/>
  </g>
 </g>
</svg>
